<?xml version="1.0" encoding="UTF-8" standalone="no"?><svg xmlns="http://www.w3.org/2000/svg" xmlns:xlink="http://www.w3.org/1999/xlink" contentStyleType="text/css" height="997px" preserveAspectRatio="none" style="width:670px;height:997px;background:#FFFFFF;" version="1.1" viewBox="0 0 670 997" width="670px" zoomAndPan="magnify"><defs/><g><!--MD5=[35a64b983c79880384a2fd9b61f0c24b]
class Usuario--><g id="elem_Usuario"><rect codeLine="1" fill="#F1F1F1" height="357.6406" id="Usuario" rx="2.5" ry="2.5" style="stroke:#181818;stroke-width:0.5;" width="521" x="62" y="7"/><ellipse cx="292.75" cy="23" fill="#ADD1B2" rx="11" ry="11" style="stroke:#181818;stroke-width:1.0;"/><path d="M295.0938,18.6719 C294.1563,18.2344 293.5625,18.0938 292.6875,18.0938 C290.0625,18.0938 288.0625,20.1719 288.0625,22.8906 L288.0625,24.0156 C288.0625,26.5938 290.1719,28.4844 293.0625,28.4844 C294.2813,28.4844 295.4375,28.1875 296.1875,27.6406 C296.7656,27.2344 297.0938,26.7813 297.0938,26.3906 C297.0938,25.9375 296.7031,25.5469 296.2344,25.5469 C296.0156,25.5469 295.8125,25.625 295.625,25.8125 C295.1719,26.2969 295.1719,26.2969 294.9844,26.3906 C294.5625,26.6563 293.875,26.7813 293.1094,26.7813 C291.0625,26.7813 289.7656,25.6875 289.7656,23.9844 L289.7656,22.8906 C289.7656,21.1094 291.0156,19.7969 292.75,19.7969 C293.3281,19.7969 293.9375,19.9531 294.4063,20.2031 C294.8906,20.4844 295.0625,20.7031 295.1563,21.1094 C295.2188,21.5156 295.25,21.6406 295.3906,21.7656 C295.5313,21.9063 295.7656,22.0156 295.9844,22.0156 C296.25,22.0156 296.5156,21.875 296.6875,21.6563 C296.7969,21.5 296.8281,21.3125 296.8281,20.8906 L296.8281,19.4688 C296.8281,19.0313 296.8125,18.9063 296.7188,18.75 C296.5625,18.4844 296.2813,18.3438 295.9844,18.3438 C295.6875,18.3438 295.4844,18.4375 295.2656,18.75 L295.0938,18.6719 Z " fill="#000000"/><text fill="#000000" font-family="sans-serif" font-size="14" lengthAdjust="spacing" textLength="51" x="313.25" y="27.8467">Usuario</text><line style="stroke:#181818;stroke-width:0.5;" x1="63" x2="582" y1="39" y2="39"/><text fill="#000000" font-family="sans-serif" font-size="14" lengthAdjust="spacing" textLength="114" x="68" y="55.9951">nombre : String</text><text fill="#000000" font-family="sans-serif" font-size="14" lengthAdjust="spacing" textLength="46" x="68" y="72.292">id : int</text><text fill="#000000" font-family="sans-serif" font-size="14" lengthAdjust="spacing" textLength="124" x="68" y="88.5889">password : String</text><text fill="#000000" font-family="sans-serif" font-size="14" lengthAdjust="spacing" textLength="170" x="68" y="104.8857">fechaNacimiento : Date</text><text fill="#000000" font-family="sans-serif" font-size="14" lengthAdjust="spacing" textLength="88" x="68" y="121.1826">foto : String</text><text fill="#000000" font-family="sans-serif" font-size="14" lengthAdjust="spacing" textLength="96" x="68" y="137.4795">email : String</text><text fill="#000000" font-family="sans-serif" font-size="14" lengthAdjust="spacing" textLength="120" x="68" y="153.7764">valoracion : float</text><text fill="#000000" font-family="sans-serif" font-size="14" lengthAdjust="spacing" textLength="188" x="68" y="170.0732">valoraciones : List&lt;flloat&gt;</text><line style="stroke:#181818;stroke-width:0.5;" x1="63" x2="582" y1="177.375" y2="177.375"/><text fill="#000000" font-family="sans-serif" font-size="14" lengthAdjust="spacing" textLength="409" x="68" y="194.3701">Usuario(nombre, password, fechaNacimiento, foto, email)</text><text fill="#000000" font-family="sans-serif" font-size="14" lengthAdjust="spacing" textLength="255" x="68" y="210.667">iniciarSesion(email,password) : bool</text><text fill="#000000" font-family="sans-serif" font-size="14" lengthAdjust="spacing" textLength="230" x="68" y="226.9639">recuperarPassword(email) : bool</text><text fill="#000000" font-family="sans-serif" font-size="14" lengthAdjust="spacing" textLength="509" x="68" y="243.2607">modificarPerfil(nombre, password, fechaNacimiento, foto, email) : bool</text><text fill="#000000" font-family="sans-serif" font-size="14" lengthAdjust="spacing" textLength="180" x="68" y="259.5576">eliminar(password) : bool</text><text fill="#000000" font-family="sans-serif" font-size="14" lengthAdjust="spacing" textLength="199" x="68" y="275.8545">seguirUsuario(usuario) : bool</text><text fill="#000000" font-family="sans-serif" font-size="14" lengthAdjust="spacing" textLength="250" x="68" y="292.1514">recibirValoracion(valoracion) : bool</text><text fill="#000000" font-family="sans-serif" font-size="14" lengthAdjust="spacing" textLength="270" x="68" y="308.4482">recibirComentario(comentario) : bool</text><text fill="#000000" font-family="sans-serif" font-size="14" lengthAdjust="spacing" textLength="194" x="68" y="324.7451">crearEvento(evento) : bool</text><text fill="#000000" font-family="sans-serif" font-size="14" lengthAdjust="spacing" textLength="225" x="68" y="341.042">modificarEvento(evento) : bool</text><text fill="#000000" font-family="sans-serif" font-size="14" lengthAdjust="spacing" textLength="151" x="68" y="357.3389">toJson() : JSONObject</text></g><!--MD5=[a7fe746e63beac1c0be8f3a5acdac4a0]
class Evento--><g id="elem_Evento"><rect codeLine="23" fill="#F1F1F1" height="308.75" id="Evento" rx="2.5" ry="2.5" style="stroke:#181818;stroke-width:0.5;" width="432" x="24.5" y="442"/><ellipse cx="210.75" cy="458" fill="#ADD1B2" rx="11" ry="11" style="stroke:#181818;stroke-width:1.0;"/><path d="M213.0938,453.6719 C212.1563,453.2344 211.5625,453.0938 210.6875,453.0938 C208.0625,453.0938 206.0625,455.1719 206.0625,457.8906 L206.0625,459.0156 C206.0625,461.5938 208.1719,463.4844 211.0625,463.4844 C212.2813,463.4844 213.4375,463.1875 214.1875,462.6406 C214.7656,462.2344 215.0938,461.7813 215.0938,461.3906 C215.0938,460.9375 214.7031,460.5469 214.2344,460.5469 C214.0156,460.5469 213.8125,460.625 213.625,460.8125 C213.1719,461.2969 213.1719,461.2969 212.9844,461.3906 C212.5625,461.6563 211.875,461.7813 211.1094,461.7813 C209.0625,461.7813 207.7656,460.6875 207.7656,458.9844 L207.7656,457.8906 C207.7656,456.1094 209.0156,454.7969 210.75,454.7969 C211.3281,454.7969 211.9375,454.9531 212.4063,455.2031 C212.8906,455.4844 213.0625,455.7031 213.1563,456.1094 C213.2188,456.5156 213.25,456.6406 213.3906,456.7656 C213.5313,456.9063 213.7656,457.0156 213.9844,457.0156 C214.25,457.0156 214.5156,456.875 214.6875,456.6563 C214.7969,456.5 214.8281,456.3125 214.8281,455.8906 L214.8281,454.4688 C214.8281,454.0313 214.8125,453.9063 214.7188,453.75 C214.5625,453.4844 214.2813,453.3438 213.9844,453.3438 C213.6875,453.3438 213.4844,453.4375 213.2656,453.75 L213.0938,453.6719 Z " fill="#000000"/><text fill="#000000" font-family="sans-serif" font-size="14" lengthAdjust="spacing" textLength="51" x="231.25" y="462.8467">Evento</text><line style="stroke:#181818;stroke-width:0.5;" x1="25.5" x2="455.5" y1="474" y2="474"/><text fill="#000000" font-family="sans-serif" font-size="14" lengthAdjust="spacing" textLength="114" x="30.5" y="490.9951">nombre : String</text><text fill="#000000" font-family="sans-serif" font-size="14" lengthAdjust="spacing" textLength="125" x="30.5" y="507.292">ubicacion : String</text><text fill="#000000" font-family="sans-serif" font-size="14" lengthAdjust="spacing" textLength="88" x="30.5" y="523.5889">fecha : Date</text><text fill="#000000" font-family="sans-serif" font-size="14" lengthAdjust="spacing" textLength="96" x="30.5" y="539.8857">host : Usuario</text><text fill="#000000" font-family="sans-serif" font-size="14" lengthAdjust="spacing" textLength="120" x="30.5" y="556.1826">valoracion : float</text><text fill="#000000" font-family="sans-serif" font-size="14" lengthAdjust="spacing" textLength="184" x="30.5" y="572.4795">valoraciones : List&lt;float&gt;</text><text fill="#000000" font-family="sans-serif" font-size="14" lengthAdjust="spacing" textLength="173" x="30.5" y="588.7764">etiquetas : List&lt;String&gt;</text><line style="stroke:#181818;stroke-width:0.5;" x1="25.5" x2="455.5" y1="596.0781" y2="596.0781"/><text fill="#000000" font-family="sans-serif" font-size="14" lengthAdjust="spacing" textLength="358" x="30.5" y="613.0732">Evento(nombre, ubicacion, fecha, host, etiquetas)</text><text fill="#000000" font-family="sans-serif" font-size="14" lengthAdjust="spacing" textLength="420" x="30.5" y="629.3701">modificar(nombre, ubicacion, fecha, host, etiquetas) : bool</text><text fill="#000000" font-family="sans-serif" font-size="14" lengthAdjust="spacing" textLength="270" x="30.5" y="645.667">recibirComentario(comentario) : bool</text><text fill="#000000" font-family="sans-serif" font-size="14" lengthAdjust="spacing" textLength="250" x="30.5" y="661.9639">recibirValoracion(valoracion) : bool</text><text fill="#000000" font-family="sans-serif" font-size="14" lengthAdjust="spacing" textLength="278" x="30.5" y="678.2607">a単adirParticipante(participante) : bool</text><text fill="#000000" font-family="sans-serif" font-size="14" lengthAdjust="spacing" textLength="292" x="30.5" y="694.5576">eliminarParticipante(participante) : bool</text><text fill="#000000" font-family="sans-serif" font-size="14" lengthAdjust="spacing" textLength="113" x="30.5" y="710.8545">eliminar() : bool</text><text fill="#000000" font-family="sans-serif" font-size="14" lengthAdjust="spacing" textLength="262" x="30.5" y="727.1514">a単adirPublicacion(publicacion) : bool</text><text fill="#000000" font-family="sans-serif" font-size="14" lengthAdjust="spacing" textLength="151" x="30.5" y="743.4482">toJson() : JSONObject</text></g><!--MD5=[b14aa1f9ebba3b1afff766ec4f43a094]
class Publicacion--><g id="elem_Publicacion"><rect codeLine="42" fill="#F1F1F1" height="162.0781" id="Publicacion" rx="2.5" ry="2.5" style="stroke:#181818;stroke-width:0.5;" width="347" x="7" y="828"/><ellipse cx="135.75" cy="844" fill="#ADD1B2" rx="11" ry="11" style="stroke:#181818;stroke-width:1.0;"/><path d="M138.0938,839.6719 C137.1563,839.2344 136.5625,839.0938 135.6875,839.0938 C133.0625,839.0938 131.0625,841.1719 131.0625,843.8906 L131.0625,845.0156 C131.0625,847.5938 133.1719,849.4844 136.0625,849.4844 C137.2813,849.4844 138.4375,849.1875 139.1875,848.6406 C139.7656,848.2344 140.0938,847.7813 140.0938,847.3906 C140.0938,846.9375 139.7031,846.5469 139.2344,846.5469 C139.0156,846.5469 138.8125,846.625 138.625,846.8125 C138.1719,847.2969 138.1719,847.2969 137.9844,847.3906 C137.5625,847.6563 136.875,847.7813 136.1094,847.7813 C134.0625,847.7813 132.7656,846.6875 132.7656,844.9844 L132.7656,843.8906 C132.7656,842.1094 134.0156,840.7969 135.75,840.7969 C136.3281,840.7969 136.9375,840.9531 137.4063,841.2031 C137.8906,841.4844 138.0625,841.7031 138.1563,842.1094 C138.2188,842.5156 138.25,842.6406 138.3906,842.7656 C138.5313,842.9063 138.7656,843.0156 138.9844,843.0156 C139.25,843.0156 139.5156,842.875 139.6875,842.6563 C139.7969,842.5 139.8281,842.3125 139.8281,841.8906 L139.8281,840.4688 C139.8281,840.0313 139.8125,839.9063 139.7188,839.75 C139.5625,839.4844 139.2813,839.3438 138.9844,839.3438 C138.6875,839.3438 138.4844,839.4375 138.2656,839.75 L138.0938,839.6719 Z " fill="#000000"/><text fill="#000000" font-family="sans-serif" font-size="14" lengthAdjust="spacing" textLength="81" x="156.25" y="848.8467">Publicacion</text><line style="stroke:#181818;stroke-width:0.5;" x1="8" x2="353" y1="860" y2="860"/><text fill="#000000" font-family="sans-serif" font-size="14" lengthAdjust="spacing" textLength="102" x="13" y="876.9951">autor : Usuario</text><text fill="#000000" font-family="sans-serif" font-size="14" lengthAdjust="spacing" textLength="88" x="13" y="893.292">fecha : Date</text><text fill="#000000" font-family="sans-serif" font-size="14" lengthAdjust="spacing" textLength="174" x="13" y="909.5889">imagenes : List&lt;String&gt;</text><text fill="#000000" font-family="sans-serif" font-size="14" lengthAdjust="spacing" textLength="130" x="13" y="925.8857">contenido : String</text><line style="stroke:#181818;stroke-width:0.5;" x1="8" x2="353" y1="933.1875" y2="933.1875"/><text fill="#000000" font-family="sans-serif" font-size="14" lengthAdjust="spacing" textLength="335" x="13" y="950.1826">Publicacion(autor, fecha, imagenes, contenido)</text><text fill="#000000" font-family="sans-serif" font-size="14" lengthAdjust="spacing" textLength="113" x="13" y="966.4795">eliminar() : bool</text><text fill="#000000" font-family="sans-serif" font-size="14" lengthAdjust="spacing" textLength="151" x="13" y="982.7764">toJson() : JSONObject</text></g><!--MD5=[92bd6e401080a2853674e2906bfd22c8]
class Comentario--><g id="elem_Comentario"><rect codeLine="52" fill="#F1F1F1" height="129.4844" id="Comentario" rx="2.5" ry="2.5" style="stroke:#181818;stroke-width:0.5;" width="274" x="389.5" y="844.5"/><ellipse cx="479.75" cy="860.5" fill="#ADD1B2" rx="11" ry="11" style="stroke:#181818;stroke-width:1.0;"/><path d="M482.0938,856.1719 C481.1563,855.7344 480.5625,855.5938 479.6875,855.5938 C477.0625,855.5938 475.0625,857.6719 475.0625,860.3906 L475.0625,861.5156 C475.0625,864.0938 477.1719,865.9844 480.0625,865.9844 C481.2813,865.9844 482.4375,865.6875 483.1875,865.1406 C483.7656,864.7344 484.0938,864.2813 484.0938,863.8906 C484.0938,863.4375 483.7031,863.0469 483.2344,863.0469 C483.0156,863.0469 482.8125,863.125 482.625,863.3125 C482.1719,863.7969 482.1719,863.7969 481.9844,863.8906 C481.5625,864.1563 480.875,864.2813 480.1094,864.2813 C478.0625,864.2813 476.7656,863.1875 476.7656,861.4844 L476.7656,860.3906 C476.7656,858.6094 478.0156,857.2969 479.75,857.2969 C480.3281,857.2969 480.9375,857.4531 481.4063,857.7031 C481.8906,857.9844 482.0625,858.2031 482.1563,858.6094 C482.2188,859.0156 482.25,859.1406 482.3906,859.2656 C482.5313,859.4063 482.7656,859.5156 482.9844,859.5156 C483.25,859.5156 483.5156,859.375 483.6875,859.1563 C483.7969,859 483.8281,858.8125 483.8281,858.3906 L483.8281,856.9688 C483.8281,856.5313 483.8125,856.4063 483.7188,856.25 C483.5625,855.9844 483.2813,855.8438 482.9844,855.8438 C482.6875,855.8438 482.4844,855.9375 482.2656,856.25 L482.0938,856.1719 Z " fill="#000000"/><text fill="#000000" font-family="sans-serif" font-size="14" lengthAdjust="spacing" textLength="85" x="500.25" y="865.3467">Comentario</text><line style="stroke:#181818;stroke-width:0.5;" x1="390.5" x2="662.5" y1="876.5" y2="876.5"/><text fill="#000000" font-family="sans-serif" font-size="14" lengthAdjust="spacing" textLength="102" x="395.5" y="893.4951">autor : Usuario</text><text fill="#000000" font-family="sans-serif" font-size="14" lengthAdjust="spacing" textLength="88" x="395.5" y="909.792">fecha : Date</text><text fill="#000000" font-family="sans-serif" font-size="14" lengthAdjust="spacing" textLength="130" x="395.5" y="926.0889">contenido : String</text><line style="stroke:#181818;stroke-width:0.5;" x1="390.5" x2="662.5" y1="933.3906" y2="933.3906"/><text fill="#000000" font-family="sans-serif" font-size="14" lengthAdjust="spacing" textLength="262" x="395.5" y="950.3857">Comentario(autor, fecha, contenido)</text><text fill="#000000" font-family="sans-serif" font-size="14" lengthAdjust="spacing" textLength="151" x="395.5" y="966.6826">toJson() : JSONObject</text></g><!--MD5=[af758dd691d5c02628aabeb0e7ecc6ac]
link Usuario to Evento--><g id="link_Usuario_Evento"><path codeLine="60" d="M196.6281,376.4654 C196.6281,376.4654 192.173,389.242 190.5,395 C187.3,406.013 185.68,417.403 185.293,428.903 " fill="none" id="Usuario-Evento" style="stroke:#181818;stroke-width:1.0;"/><polygon fill="#181818" points="185.363,441.919,189.3145,432.8976,185.3361,436.9191,181.3146,432.9407,185.363,441.919" style="stroke:#181818;stroke-width:1.0;"/><line style="stroke:#181818;stroke-width:1.0;" x1="185.3361" x2="185.293" y1="436.9191" y2="428.9195"/><polygon fill="#181818" points="200.943,365.268,195.0531,369.4284,196.6281,376.4654,202.518,372.305,200.943,365.268" style="stroke:#181818;stroke-width:1.0;"/><text fill="#000000" font-family="sans-serif" font-size="13" lengthAdjust="spacing" textLength="52" x="191.5" y="408.0669">eventos</text><text fill="#000000" font-family="sans-serif" font-size="13" lengthAdjust="spacing" textLength="8" x="188.0384" y="384.6401">0</text><text fill="#000000" font-family="sans-serif" font-size="13" lengthAdjust="spacing" textLength="7" x="175.5228" y="431.1444">*</text></g><!--MD5=[6c9d7c9aeef97fed02594fa1417000b2]
link Evento to Usuario--><g id="link_Evento_Usuario"><path codeLine="61" d="M271.376,441.685 C276.049,418.405 280.91,394.191 285.693,370.361 " fill="none" id="Evento-to-Usuario" style="stroke:#181818;stroke-width:1.0;"/><polygon fill="#181818" points="286.713,365.283,281.0193,373.3193,285.7286,370.1851,288.8627,374.8944,286.713,365.283" style="stroke:#181818;stroke-width:1.0;"/><text fill="#000000" font-family="sans-serif" font-size="13" lengthAdjust="spacing" textLength="28" x="280.5" y="408.0669">host</text><text fill="#000000" font-family="sans-serif" font-size="13" lengthAdjust="spacing" textLength="8" x="264.6778" y="430.899">1</text><text fill="#000000" font-family="sans-serif" font-size="13" lengthAdjust="spacing" textLength="8" x="277.1588" y="384.6557">1</text></g><!--MD5=[6c9d7c9aeef97fed02594fa1417000b2]
link Evento to Usuario--><g id="link_Evento_Usuario"><path codeLine="63" d="M313.038,430.3581 C313.038,430.3581 316.283,417.714 317.5,412 C319.835,401.032 321.709,389.696 323.197,378.212 " fill="none" id="Evento-Usuario" style="stroke:#181818;stroke-width:1.0;"/><polygon fill="#181818" points="324.716,365.194,319.6995,373.6695,324.1363,370.1603,327.6455,374.5971,324.716,365.194" style="stroke:#181818;stroke-width:1.0;"/><line style="stroke:#181818;stroke-width:1.0;" x1="324.1363" x2="323.209" y1="370.1603" y2="378.1065"/><polygon fill="#181818" points="309.761,441.902,315.2474,437.2224,313.038,430.3581,307.5515,435.0377,309.761,441.902" style="stroke:#181818;stroke-width:1.0;"/><text fill="#000000" font-family="sans-serif" font-size="13" lengthAdjust="spacing" textLength="83" x="321.5" y="408.0669">participantes</text><text fill="#000000" font-family="sans-serif" font-size="13" lengthAdjust="spacing" textLength="8" x="304.9221" y="431.1265">1</text><text fill="#000000" font-family="sans-serif" font-size="13" lengthAdjust="spacing" textLength="7" x="317.6658" y="384.5632">*</text></g><!--MD5=[c76e740dd18a0c83b8fcf04774bdef6c]
link Evento to Publicacion--><g id="link_Evento_Publicacion"><path codeLine="62" d="M208.4865,763.1679 C208.4865,763.1679 201.651,798.544 198.568,814.5 " fill="none" id="Evento-Publicacion" style="stroke:#181818;stroke-width:1.0;"/><polygon fill="#181818" points="196.028,827.64,201.6634,819.5628,196.977,822.7309,193.8088,818.0444,196.028,827.64" style="stroke:#181818;stroke-width:1.0;"/><line style="stroke:#181818;stroke-width:1.0;" x1="196.977" x2="198.495" y1="822.7309" y2="814.8765"/><polygon fill="#181818" points="210.764,751.386,205.6979,756.5178,208.4865,763.1679,213.5525,758.0361,210.764,751.386" style="stroke:#181818;stroke-width:1.0;"/><text fill="#000000" font-family="sans-serif" font-size="13" lengthAdjust="spacing" textLength="86" x="204.5" y="794.0669">publicaciones</text><text fill="#000000" font-family="sans-serif" font-size="13" lengthAdjust="spacing" textLength="8" x="201.2353" y="770.8197">0</text><text fill="#000000" font-family="sans-serif" font-size="13" lengthAdjust="spacing" textLength="7" x="190.0617" y="817.0728">*</text></g><!--MD5=[50c9f47a4c3c63c4cac70c02b0ddbc6d]
link Evento to Comentario--><g id="link_Evento_Comentario"><path codeLine="64" d="M383.5966,760.0851 C383.5966,760.0851 407.299,786.003 418.5,798 C429.669,809.962 441.665,822.487 453.455,834.622 " fill="none" id="Evento-Comentario" style="stroke:#181818;stroke-width:1.0;"/><polygon fill="#181818" points="462.847,844.252,459.4267,835.0161,459.356,840.6725,453.6996,840.6017,462.847,844.252" style="stroke:#181818;stroke-width:1.0;"/><line style="stroke:#181818;stroke-width:1.0;" x1="459.356" x2="453.7705" y1="840.6725" y2="834.945"/><polygon fill="#181818" points="375.532,751.199,376.6023,758.3302,383.5966,760.0851,382.5263,752.9538,375.532,751.199" style="stroke:#181818;stroke-width:1.0;"/><text fill="#000000" font-family="sans-serif" font-size="13" lengthAdjust="spacing" textLength="80" x="419.5" y="794.0669">comentarios</text><text fill="#000000" font-family="sans-serif" font-size="13" lengthAdjust="spacing" textLength="8" x="373.4694" y="770.6242">0</text><text fill="#000000" font-family="sans-serif" font-size="13" lengthAdjust="spacing" textLength="7" x="448.5021" y="833.3975">*</text></g><!--MD5=[72f6daa39d084602b9ef2be870eaa889]
link Usuario to Comentario--><g id="link_Usuario_Comentario"><path codeLine="65" d="M445.9444,376.0572 C445.9444,376.0572 466.211,420.292 473.5,442 C517.763,573.827 526.556,737.16 527.506,831.292 " fill="none" id="Usuario-Comentario" style="stroke:#181818;stroke-width:1.0;"/><polygon fill="#181818" points="527.591,844.385,531.5326,835.3593,527.5586,839.3851,523.5327,835.4111,527.591,844.385" style="stroke:#181818;stroke-width:1.0;"/><line style="stroke:#181818;stroke-width:1.0;" x1="527.5586" x2="527.506" y1="839.3851" y2="831.3855"/><polygon fill="#181818" points="440.572,365.327,439.6814,372.4829,445.9444,376.0572,446.8349,368.9013,440.572,365.327" style="stroke:#181818;stroke-width:1.0;"/><text fill="#000000" font-family="sans-serif" font-size="13" lengthAdjust="spacing" textLength="80" x="525.5" y="601.0669">comentarios</text><text fill="#000000" font-family="sans-serif" font-size="13" lengthAdjust="spacing" textLength="8" x="437.0279" y="384.7014">0</text><text fill="#000000" font-family="sans-serif" font-size="13" lengthAdjust="spacing" textLength="7" x="520.3275" y="833.5451">*</text></g><!--MD5=[ce3b23489a5cb21eda45066fd87e1746]
@startuml
class Usuario {
  nombre : String
  id : int
  password : String
  fechaNacimiento : Date
  foto : String
  email : String
  valoracion : float
  valoraciones : List<flloat>
  Usuario(nombre, password, fechaNacimiento, foto, email)
  iniciarSesion(email,password) : bool
  recuperarPassword(email) : bool
  modificarPerfil(nombre, password, fechaNacimiento, foto, email) : bool
  eliminar(password) : bool
  seguirUsuario(usuario) : bool
  recibirValoracion(valoracion) : bool
  recibirComentario(comentario) : bool
  crearEvento(evento) : bool
  modificarEvento(evento) : bool
  toJson() : JSONObject
}

class Evento {
  nombre : String
  ubicacion : String
  fecha : Date
  host : Usuario
  valoracion : float
  valoraciones : List<float>
  etiquetas : List<String>
  Evento(nombre, ubicacion, fecha, host, etiquetas)
  modificar(nombre, ubicacion, fecha, host, etiquetas) : bool
  recibirComentario(comentario) : bool
  recibirValoracion(valoracion) : bool
  a単adirParticipante(participante) : bool
  eliminarParticipante(participante) : bool
  eliminar() : bool
  a単adirPublicacion(publicacion) : bool
  toJson() : JSONObject
}

class Publicacion {
  autor : Usuario
  fecha : Date
  imagenes : List<String>
  contenido : String
  Publicacion(autor, fecha, imagenes, contenido)
  eliminar() : bool
  toJson() : JSONObject
}

class Comentario {
  autor : Usuario
  fecha : Date
  contenido : String
  Comentario(autor, fecha, contenido)
  toJson() : JSONObject
}

Usuario "0" *- -> "*" Evento : eventos
Evento "1" - -> "1" Usuario : host
Evento "0" *- -> "*" Publicacion : publicaciones
Evento "1" *- -> "*" Usuario : participantes
Evento "0" *- -> "*" Comentario : comentarios
Usuario "0" *- -> "*" Comentario : comentarios
@enduml

PlantUML version 1.2022.4beta2(Unknown compile time)
(GPL source distribution)
Java Runtime: Java(TM) SE Runtime Environment
JVM: Java HotSpot(TM) 64-Bit Server VM
Default Encoding: UTF-8
Language: en
Country: US
--></g></svg>