<?xml version="1.0" encoding="UTF-8" standalone="no"?><svg xmlns="http://www.w3.org/2000/svg" xmlns:xlink="http://www.w3.org/1999/xlink" contentStyleType="text/css" height="2582px" preserveAspectRatio="none" style="width:1038px;height:2582px;background:#FFFFFF;" version="1.1" viewBox="0 0 1038 2582" width="1038px" zoomAndPan="magnify"><defs/><g><!--MD5=[7d2f0ea15d22a7c82e06b53f180964bd]
cluster FindMyParty--><g id="cluster_FindMyParty"><rect height="2367" rx="2.5" ry="2.5" style="stroke:#181818;stroke-width:1.0;fill:none;" width="645" x="229" y="7"/><text fill="#000000" font-family="sans-serif" font-size="14" font-weight="bold" lengthAdjust="spacing" textLength="101" x="501" y="21.9951">FindMyParty</text></g><!--MD5=[83f01bc6a7e7e0ff9cb7a94f7a9901cf]
cluster Gestión cuenta--><g id="cluster_Gestión cuenta"><path d="M297,50 L422,50 A3.75,3.75 0 0 1 424.5,52.5 L431.5,72.2969 L847.5,72.2969 A2.5,2.5 0 0 1 850,74.7969 L850,502.5 A2.5,2.5 0 0 1 847.5,505 L297,505 A2.5,2.5 0 0 1 294.5,502.5 L294.5,52.5 A2.5,2.5 0 0 1 297,50 " style="stroke:#000000;stroke-width:1.5;fill:none;"/><line style="stroke:#000000;stroke-width:1.5;fill:none;" x1="294.5" x2="431.5" y1="72.2969" y2="72.2969"/><text fill="#000000" font-family="sans-serif" font-size="14" font-weight="bold" lengthAdjust="spacing" textLength="124" x="298.5" y="64.9951">Gestión cuenta</text></g><!--MD5=[9c5ae97189cdfbf53069824cc08b5134]
cluster Interacción entre usuarios--><g id="cluster_Interacción entre usuarios"><path d="M298.5,529 L514.5,529 A3.75,3.75 0 0 1 517,531.5 L524,551.2969 L524.5,551.2969 A2.5,2.5 0 0 1 527,553.7969 L527,757.5 A2.5,2.5 0 0 1 524.5,760 L298.5,760 A2.5,2.5 0 0 1 296,757.5 L296,531.5 A2.5,2.5 0 0 1 298.5,529 " style="stroke:#000000;stroke-width:1.5;fill:none;"/><line style="stroke:#000000;stroke-width:1.5;fill:none;" x1="296" x2="524" y1="551.2969" y2="551.2969"/><text fill="#000000" font-family="sans-serif" font-size="14" font-weight="bold" lengthAdjust="spacing" textLength="215" x="300" y="543.9951">Interacción entre usuarios</text></g><!--MD5=[02f856d15949fa4c73b75b22d973d3cb]
cluster Interacción con evento--><g id="cluster_Interacción con evento"><path d="M279,784 L466,784 A3.75,3.75 0 0 1 468.5,786.5 L475.5,806.2969 L543,806.2969 A2.5,2.5 0 0 1 545.5,808.7969 L545.5,1621.5 A2.5,2.5 0 0 1 543,1624 L279,1624 A2.5,2.5 0 0 1 276.5,1621.5 L276.5,786.5 A2.5,2.5 0 0 1 279,784 " style="stroke:#000000;stroke-width:1.5;fill:none;"/><line style="stroke:#000000;stroke-width:1.5;fill:none;" x1="276.5" x2="475.5" y1="806.2969" y2="806.2969"/><text fill="#000000" font-family="sans-serif" font-size="14" font-weight="bold" lengthAdjust="spacing" textLength="186" x="280.5" y="798.9951">Interacción con evento</text></g><!--MD5=[9a48ad62132442d0378d1140342ba5ba]
cluster Filtros--><g id="cluster_Filtros"><path d="M255.5,1648 L309.5,1648 A3.75,3.75 0 0 1 312,1650.5 L319,1670.2969 L566.5,1670.2969 A2.5,2.5 0 0 1 569,1672.7969 L569,2230.5 A2.5,2.5 0 0 1 566.5,2233 L255.5,2233 A2.5,2.5 0 0 1 253,2230.5 L253,1650.5 A2.5,2.5 0 0 1 255.5,1648 " style="stroke:#000000;stroke-width:1.5;fill:none;"/><line style="stroke:#000000;stroke-width:1.5;fill:none;" x1="253" x2="319" y1="1670.2969" y2="1670.2969"/><text fill="#000000" font-family="sans-serif" font-size="14" font-weight="bold" lengthAdjust="spacing" textLength="53" x="257" y="1662.9951">Filtros</text></g><g id="elem_UC30"><ellipse cx="410.8073" cy="2340.8615" fill="#F1F1F1" rx="72.3073" ry="16.8615" style="stroke:#181818;stroke-width:0.5;"/><text fill="#000000" font-family="sans-serif" font-size="14" lengthAdjust="spacing" textLength="99" x="358.3073" y="2344.609">Mostrar mapa</text></g><g id="elem_UC31"><ellipse cx="411.0271" cy="2270.1054" fill="#F1F1F1" rx="81.0271" ry="18.6054" style="stroke:#181818;stroke-width:0.5;"/><text fill="#000000" font-family="sans-serif" font-size="14" lengthAdjust="spacing" textLength="121" x="349.2415" y="2273.3718">Mostrar anuncios</text></g><g id="elem_UC1"><ellipse cx="411.1952" cy="101.839" fill="#F1F1F1" rx="69.6952" ry="16.339" style="stroke:#181818;stroke-width:0.5;"/><text fill="#000000" font-family="sans-serif" font-size="14" lengthAdjust="spacing" textLength="92" x="362.1952" y="105.5866">Crear cuenta</text></g><g id="elem_UC3"><ellipse cx="410.9278" cy="175.9856" fill="#F1F1F1" rx="100.4278" ry="22.4856" style="stroke:#181818;stroke-width:0.5;"/><text fill="#000000" font-family="sans-serif" font-size="14" lengthAdjust="spacing" textLength="165" x="328.4278" y="178.8322">Recuperar constraseña</text></g><g id="elem_UC4"><ellipse cx="411.1952" cy="249.839" fill="#F1F1F1" rx="69.6952" ry="16.339" style="stroke:#181818;stroke-width:0.5;"/><text fill="#000000" font-family="sans-serif" font-size="14" lengthAdjust="spacing" textLength="92" x="362.1952" y="253.5866">Iniciar sesión</text></g><g id="elem_UC5"><ellipse cx="410.9278" cy="323.9856" fill="#F1F1F1" rx="100.4278" ry="22.4856" style="stroke:#181818;stroke-width:0.5;"/><text fill="#000000" font-family="sans-serif" font-size="14" lengthAdjust="spacing" textLength="165" x="328.4278" y="326.8322">Acceder como invitado</text></g><g id="elem_UC6"><ellipse cx="410.9563" cy="399.7913" fill="#F1F1F1" rx="76.9563" ry="17.7913" style="stroke:#181818;stroke-width:0.5;"/><text fill="#000000" font-family="sans-serif" font-size="14" lengthAdjust="spacing" textLength="111" x="352.5675" y="403.5101">Eliminar cuenta</text></g><g id="elem_UC7"><ellipse cx="411.1676" cy="471.1335" fill="#F1F1F1" rx="76.1676" ry="17.6335" style="stroke:#181818;stroke-width:0.5;"/><text fill="#000000" font-family="sans-serif" font-size="14" lengthAdjust="spacing" textLength="109" x="353.6676" y="474.8811">Modificar perfil</text></g><g id="elem_UC8"><ellipse cx="748.1635" cy="105.1327" fill="#F1F1F1" rx="86.1635" ry="19.6327" style="stroke:#181818;stroke-width:0.5;"/><text fill="#000000" font-family="sans-serif" font-size="14" lengthAdjust="spacing" textLength="133" x="681.6635" y="107.9794">Verificar identidad</text></g><g id="elem_UC9"><ellipse cx="410.8073" cy="580.8615" fill="#F1F1F1" rx="72.3073" ry="16.8615" style="stroke:#181818;stroke-width:0.5;"/><text fill="#000000" font-family="sans-serif" font-size="14" lengthAdjust="spacing" textLength="99" x="358.3073" y="584.609">Seguir usuario</text></g><g id="elem_UC10"><ellipse cx="410.8735" cy="651.7747" fill="#F1F1F1" rx="79.3735" ry="18.2747" style="stroke:#181818;stroke-width:0.5;"/><text fill="#000000" font-family="sans-serif" font-size="14" lengthAdjust="spacing" textLength="117" x="350.4676" y="655.2248">Valorar anfitrión</text></g><g id="elem_UC11"><ellipse cx="411.1379" cy="725.0276" fill="#F1F1F1" rx="83.1379" ry="19.0276" style="stroke:#181818;stroke-width:0.5;"/><text fill="#000000" font-family="sans-serif" font-size="14" lengthAdjust="spacing" textLength="126" x="347.5914" y="728.0594">Comentar usuario</text></g><g id="elem_UC12"><ellipse cx="411.0271" cy="909.1054" fill="#F1F1F1" rx="81.0271" ry="18.6054" style="stroke:#181818;stroke-width:0.5;"/><text fill="#000000" font-family="sans-serif" font-size="14" lengthAdjust="spacing" textLength="121" x="349.2415" y="912.3718">Modificar evento</text></g><g id="elem_UC13"><ellipse cx="410.9293" cy="989.0859" fill="#F1F1F1" rx="118.4293" ry="26.0859" style="stroke:#181818;stroke-width:0.5;"/><text fill="#000000" font-family="sans-serif" font-size="14" lengthAdjust="spacing" textLength="204" x="308.9293" y="991.9325">Acceder información evento</text></g><g id="elem_UC14"><ellipse cx="411.0656" cy="1069.1131" fill="#F1F1F1" rx="83.5656" ry="19.1131" style="stroke:#181818;stroke-width:0.5;"/><text fill="#000000" font-family="sans-serif" font-size="14" lengthAdjust="spacing" textLength="127" x="347.1623" y="1072.0974">Comentar evento</text></g><g id="elem_UC15"><ellipse cx="410.9563" cy="1140.7913" fill="#F1F1F1" rx="76.9563" ry="17.7913" style="stroke:#181818;stroke-width:0.5;"/><text fill="#000000" font-family="sans-serif" font-size="14" lengthAdjust="spacing" textLength="111" x="352.5675" y="1144.5101">Unirse a evento</text></g><g id="elem_UC16"><ellipse cx="411.1635" cy="1214.1327" fill="#F1F1F1" rx="86.1635" ry="19.6327" style="stroke:#181818;stroke-width:0.5;"/><text fill="#000000" font-family="sans-serif" font-size="14" lengthAdjust="spacing" textLength="133" x="344.6635" y="1216.9794">Abandonar evento</text></g><g id="elem_UC17"><ellipse cx="411.1626" cy="1291.0325" fill="#F1F1F1" rx="98.1626" ry="22.0325" style="stroke:#181818;stroke-width:0.5;"/><text fill="#000000" font-family="sans-serif" font-size="14" lengthAdjust="spacing" textLength="160" x="331.1626" y="1293.8792">Ver lista participantes</text></g><g id="elem_UC18"><ellipse cx="410.7532" cy="836.9506" fill="#F1F1F1" rx="77.7532" ry="17.9506" style="stroke:#181818;stroke-width:0.5;"/><text fill="#000000" font-family="sans-serif" font-size="14" lengthAdjust="spacing" textLength="113" x="351.6994" y="840.5809">Eliminar evento</text></g><g id="elem_UC19"><ellipse cx="410.9333" cy="1364.9867" fill="#F1F1F1" rx="70.4333" ry="16.4867" style="stroke:#181818;stroke-width:0.5;"/><text fill="#000000" font-family="sans-serif" font-size="14" lengthAdjust="spacing" textLength="94" x="360.9333" y="1368.7342">Crear evento</text></g><g id="elem_UC20"><ellipse cx="410.8592" cy="1435.8718" fill="#F1F1F1" rx="84.8592" ry="19.3718" style="stroke:#181818;stroke-width:0.5;"/><text fill="#000000" font-family="sans-serif" font-size="14" lengthAdjust="spacing" textLength="130" x="345.8592" y="1438.7185">Publicar imágenes</text></g><g id="elem_UC21"><ellipse cx="411.1177" cy="1514.1235" fill="#F1F1F1" rx="103.6177" ry="23.1235" style="stroke:#181818;stroke-width:0.5;"/><text fill="#000000" font-family="sans-serif" font-size="14" lengthAdjust="spacing" textLength="172" x="325.1177" y="1516.9702">Acceder chat de evento</text></g><g id="elem_UC22"><ellipse cx="410.8536" cy="1589.8707" fill="#F1F1F1" rx="77.3536" ry="17.8707" style="stroke:#181818;stroke-width:0.5;"/><text fill="#000000" font-family="sans-serif" font-size="14" lengthAdjust="spacing" textLength="112" x="352.1333" y="1593.5454">Escribir en chat</text></g><g id="elem_UC23"><ellipse cx="410.8536" cy="1700.8707" fill="#F1F1F1" rx="77.3536" ry="17.8707" style="stroke:#181818;stroke-width:0.5;"/><text fill="#000000" font-family="sans-serif" font-size="14" lengthAdjust="spacing" textLength="112" x="352.1333" y="1704.5454">Filtrar por radio</text></g><g id="elem_UC24"><ellipse cx="411.1004" cy="1784.8201" fill="#F1F1F1" rx="142.1004" ry="30.8201" style="stroke:#181818;stroke-width:0.5;"/><text fill="#000000" font-family="sans-serif" font-size="14" lengthAdjust="spacing" textLength="254" x="284.1004" y="1787.6668">Filtrar por número de participantes</text></g><g id="elem_UC25"><ellipse cx="410.9969" cy="1880.1994" fill="#F1F1F1" rx="133.9969" ry="29.1994" style="stroke:#181818;stroke-width:0.5;"/><text fill="#000000" font-family="sans-serif" font-size="14" lengthAdjust="spacing" textLength="237" x="292.4969" y="1883.0461">Filtrar por valoración de anfitrión</text></g><g id="elem_UC26"><ellipse cx="410.9996" cy="1965.0999" fill="#F1F1F1" rx="90.9996" ry="20.5999" style="stroke:#181818;stroke-width:0.5;"/><text fill="#000000" font-family="sans-serif" font-size="14" lengthAdjust="spacing" textLength="144" x="338.9996" y="1967.9466">Filtrar por etiquetas</text></g><g id="elem_UC27"><ellipse cx="410.8536" cy="2038.8707" fill="#F1F1F1" rx="77.3536" ry="17.8707" style="stroke:#181818;stroke-width:0.5;"/><text fill="#000000" font-family="sans-serif" font-size="14" lengthAdjust="spacing" textLength="112" x="352.1333" y="2042.5454">Filtrar por pago</text></g><g id="elem_UC28"><ellipse cx="410.7652" cy="2117.153" fill="#F1F1F1" rx="113.7652" ry="25.153" style="stroke:#181818;stroke-width:0.5;"/><text fill="#000000" font-family="sans-serif" font-size="14" lengthAdjust="spacing" textLength="194" x="313.7652" y="2119.9997">Filtrar por dia de la semana</text></g><g id="elem_UC29"><ellipse cx="411.0998" cy="2197.22" fill="#F1F1F1" rx="86.5998" ry="19.72" style="stroke:#181818;stroke-width:0.5;"/><text fill="#000000" font-family="sans-serif" font-size="14" lengthAdjust="spacing" textLength="134" x="344.0998" y="2200.0666">Buscar localización</text></g><!--MD5=[ee0fec323975fbe97ba28321ad4c4bf3]
entity U--><g id="elem_U"><ellipse cx="31.5" cy="1148.5" fill="#F1F1F1" rx="8" ry="8" style="stroke:#181818;stroke-width:0.5;"/><path d="M31.5,1156.5 L31.5,1183.5 M18.5,1164.5 L44.5,1164.5 M31.5,1183.5 L18.5,1198.5 M31.5,1183.5 L44.5,1198.5 " fill="none" style="stroke:#181818;stroke-width:0.5;"/><text fill="#000000" font-family="sans-serif" font-size="14" lengthAdjust="spacing" textLength="51" x="6" y="1212.9951">Usuario</text></g><!--MD5=[770389ab9df153645bc6ef28055eb2b5]
entity A--><g id="elem_A"><ellipse cx="150" cy="879.5" fill="#F1F1F1" rx="8" ry="8" style="stroke:#181818;stroke-width:0.5;"/><path d="M150,887.5 L150,914.5 M137,895.5 L163,895.5 M150,914.5 L137,929.5 M150,914.5 L163,929.5 " fill="none" style="stroke:#181818;stroke-width:0.5;"/><text fill="#000000" font-family="sans-serif" font-size="14" lengthAdjust="spacing" textLength="64" x="118" y="943.9951">Anfitrión</text></g><!--MD5=[939666380ae8c3770b1b769b859dfcb9]
entity APIV--><g id="elem_APIV"><ellipse cx="976" cy="75.5" fill="#F1F1F1" rx="8" ry="8" style="stroke:#181818;stroke-width:0.5;"/><path d="M976,83.5 L976,110.5 M963,91.5 L989,91.5 M976,110.5 L963,125.5 M976,110.5 L989,125.5 " fill="none" style="stroke:#181818;stroke-width:0.5;"/><text fill="#000000" font-family="sans-serif" font-size="14" lengthAdjust="spacing" textLength="110" x="921" y="139.9951">API verificación</text></g><!--MD5=[e1c8081d9970b9b7b83adc32ee9c7782]
entity GM--><g id="elem_GM"><ellipse cx="748" cy="2509.5" fill="#F1F1F1" rx="8" ry="8" style="stroke:#181818;stroke-width:0.5;"/><path d="M748,2517.5 L748,2544.5 M735,2525.5 L761,2525.5 M748,2544.5 L735,2559.5 M748,2544.5 L761,2559.5 " fill="none" style="stroke:#181818;stroke-width:0.5;"/><text fill="#000000" font-family="sans-serif" font-size="14" lengthAdjust="spacing" textLength="92" x="702" y="2573.9951">Google Maps</text></g><!--MD5=[97db3ed258f199931cb7ec9b00ff5adb]
entity SDK--><g id="elem_SDK"><ellipse cx="748" cy="2398.5" fill="#F1F1F1" rx="8" ry="8" style="stroke:#181818;stroke-width:0.5;"/><path d="M748,2406.5 L748,2433.5 M735,2414.5 L761,2414.5 M748,2433.5 L735,2448.5 M748,2433.5 L761,2448.5 " fill="none" style="stroke:#181818;stroke-width:0.5;"/><text fill="#000000" font-family="sans-serif" font-size="14" lengthAdjust="spacing" textLength="91" x="702.5" y="2462.9951">SDK externo</text></g><!--MD5=[5045d91a29410e94c0e59098565a6d50]
reverse link U to A--><g id="link_U_A"><path d="M40.0889,1119.97 C47.4759,1077.47 61.4636,1019.5 87,974 C94.9378,959.86 106.659,946.48 117.779,935.57 " fill="none" id="U-backto-A" style="stroke:#181818;stroke-width:1.0;"/><polygon fill="none" points="46.9946,1121.12,36.9286,1139.76,33.1697,1118.91,46.9946,1121.12" style="stroke:#181818;stroke-width:1.0;"/></g><!--MD5=[5cb54de2d1c097e923ad005e39e7ee6b]
link UC1 to UC8--><g id="link_UC1_UC8"><path d="M480.601,102.61 C531.412,103.07 601.139,103.69 656.513,104.19 " fill="none" id="UC1-to-UC8" style="stroke:#181818;stroke-width:1.0;stroke-dasharray:7.0,7.0;"/><polygon fill="#181818" points="661.826,104.24,652.8629,100.1579,656.8262,104.1943,652.7898,108.1576,661.826,104.24" style="stroke:#181818;stroke-width:1.0;"/><text fill="#000000" font-family="sans-serif" font-size="13" lengthAdjust="spacing" textLength="45" x="586" y="100.0669">include</text></g><!--MD5=[0a70254f7fcccc78af094a57063370e0]
link U to UC1--><g id="link_U_UC1"><path d="M32.7664,1139.79 C34.3296,987.85 45.0276,427.11 118,268 C149.021,200.36 157.293,174.46 221,136 C255.278,115.31 298.988,106.55 335.738,103.08 " fill="none" id="U-to-UC1" style="stroke:#181818;stroke-width:1.0;"/><polygon fill="#181818" points="341.107,102.6,331.7902,99.4067,336.1264,103.0396,332.4935,107.3757,341.107,102.6" style="stroke:#181818;stroke-width:1.0;"/></g><!--MD5=[f77f2acdb179da8ec684e67fcfe8d851]
link U to UC3--><g id="link_U_UC3"><path d="M33.1603,1139.8 C36.1412,995.97 51.2752,487.95 118,343 C148.39,276.98 159.004,253.92 221,216 C247.641,199.7 279.906,189.97 310.179,184.18 " fill="none" id="U-to-UC3" style="stroke:#181818;stroke-width:1.0;"/><polygon fill="#181818" points="315.411,183.22,305.8356,180.9152,310.4936,184.1251,307.2838,188.7831,315.411,183.22" style="stroke:#181818;stroke-width:1.0;"/></g><!--MD5=[9b7be194ae6f0694e7ee7df55d9413e7]
link U to UC4--><g id="link_U_UC4"><path d="M33.8961,1139.97 C39.2708,1005.74 61.2349,555.18 118,424 C148.677,353.1 155.439,324.85 221,284 C255.116,262.74 299.02,253.97 335.925,250.63 " fill="none" id="U-to-UC4" style="stroke:#181818;stroke-width:1.0;"/><polygon fill="#181818" points="341.317,250.18,332.0139,246.947,336.3345,250.5983,332.6832,254.9189,341.317,250.18" style="stroke:#181818;stroke-width:1.0;"/></g><!--MD5=[c18dcaead6e75b42460ecacb700e33ef]
link U to UC5--><g id="link_U_UC5"><path d="M34.5932,1139.78 C41.857,1014.9 68.2904,620.33 118,504 C148.355,432.97 156.071,405.85 221,364 C247.116,347.17 279.081,337.28 309.242,331.51 " fill="none" id="U-to-UC5" style="stroke:#181818;stroke-width:1.0;"/><polygon fill="#181818" points="314.457,330.55,304.8817,328.2448,309.5396,331.4549,306.3295,336.1127,314.457,330.55" style="stroke:#181818;stroke-width:1.0;"/></g><!--MD5=[acb9e8fb0c660a62ed56d3774c8d6de5]
link U to UC6--><g id="link_U_UC6"><path d="M35.5178,1139.76 C44.8801,1026.21 75.384,692.69 118,593 C150.804,516.26 151.618,482.37 221,436 C252.498,414.95 293.185,405.48 328.736,401.47 " fill="none" id="U-to-UC6" style="stroke:#181818;stroke-width:1.0;"/><polygon fill="#181818" points="333.943,400.92,324.5714,397.8913,328.9709,401.4472,325.4149,405.8467,333.943,400.92" style="stroke:#181818;stroke-width:1.0;"/></g><!--MD5=[620f5f8f9aef7b850bda8b3f15623fb7]
link U to UC7--><g id="link_U_UC7"><path d="M35.4725,1139.77 C44.1614,1034.69 71.8564,743.86 118,661 C151.062,601.63 165.272,586.89 221,548 C262.433,519.09 316.35,498.49 355.987,485.92 " fill="none" id="U-to-UC7" style="stroke:#181818;stroke-width:1.0;"/><polygon fill="#181818" points="361.237,484.28,351.4526,483.1552,356.4659,485.7756,353.8455,490.7889,361.237,484.28" style="stroke:#181818;stroke-width:1.0;"/></g><!--MD5=[e634f82922a036086a0df39324c414dd]
link U to UC9--><g id="link_U_UC9"><path d="M31.8447,1139.7 C32.0975,1058.91 41.4338,867.36 118,732 C151.945,671.99 160.959,649.89 221,616 C255.068,596.77 297.57,587.81 333.636,583.75 " fill="none" id="U-to-UC9" style="stroke:#181818;stroke-width:1.0;"/><polygon fill="#181818" points="338.909,583.19,329.5348,580.1693,333.9373,583.7215,330.3851,588.124,338.909,583.19" style="stroke:#181818;stroke-width:1.0;"/></g><!--MD5=[a6d0f9c52e696e7700f2328f8a8c88d0]
link U to UC10--><g id="link_U_UC10"><path d="M32.651,1139.9 C34.6593,1067.86 47.4566,909.23 118,801 C154.926,744.34 161.988,722.03 221,689 C253.397,670.87 293.247,661.5 327.99,656.71 " fill="none" id="U-to-UC10" style="stroke:#181818;stroke-width:1.0;"/><polygon fill="#181818" points="333.078,656.04,323.6304,653.2574,328.1214,656.6971,324.6817,661.188,333.078,656.04" style="stroke:#181818;stroke-width:1.0;"/></g><!--MD5=[313afbf16a1ca793f96f138c88264742]
link U to UC11--><g id="link_U_UC11"><path d="M32.2003,1139.84 C33.7061,1073.7 46.0258,936.93 118,854 C175.62,787.61 273.938,753.97 340.4,737.98 " fill="none" id="U-to-UC11" style="stroke:#181818;stroke-width:1.0;"/><polygon fill="#181818" points="345.528,736.76,335.8492,734.9375,340.6621,737.9101,337.6894,742.723,345.528,736.76" style="stroke:#181818;stroke-width:1.0;"/></g><!--MD5=[2f85eb89430d23b277543d8f44ddfe39]
link A to UC12--><g id="link_A_UC12"><path d="M182.241,909 C217.362,909 275.873,909 324.794,909 " fill="none" id="A-to-UC12" style="stroke:#181818;stroke-width:1.0;"/><polygon fill="#181818" points="329.8,909,320.8,905,324.8,909,320.8,913,329.8,909" style="stroke:#181818;stroke-width:1.0;"/></g><!--MD5=[3d74451477d9f89dcd433e6a97180c9f]
link U to UC13--><g id="link_U_UC13"><path d="M57.2095,1142.82 C65.8784,1131.87 76.1746,1120.26 87,1111 C139.37,1066.21 156.953,1058.43 221,1033 C249.712,1021.6 282.104,1012.72 311.855,1006.02 " fill="none" id="U-to-UC13" style="stroke:#181818;stroke-width:1.0;"/><polygon fill="#181818" points="316.991,1004.88,307.3364,1002.9336,312.1107,1005.9677,309.0767,1010.742,316.991,1004.88" style="stroke:#181818;stroke-width:1.0;"/></g><!--MD5=[1b1c0a4bbbece7cd1f13124546f943df]
link U to UC14--><g id="link_U_UC14"><path d="M57.092,1157.11 C66.0654,1150.28 76.5774,1143.14 87,1138 C99.869,1131.66 104.1033,1132.57 118,1129 C193.09,1109.74 280.276,1092.47 339.695,1081.47 " fill="none" id="U-to-UC14" style="stroke:#181818;stroke-width:1.0;"/><polygon fill="#181818" points="344.64,1080.55,335.0628,1078.2529,339.7233,1081.459,336.5172,1086.1196,344.64,1080.55" style="stroke:#181818;stroke-width:1.0;"/></g><!--MD5=[7596eb7a608d1ad52dabf8f3ee129477]
link U to UC15--><g id="link_U_UC15"><path d="M57.2613,1170.63 C66.5151,1168.15 77.1649,1165.6 87,1164 C168.796,1150.69 263.489,1145.09 329.105,1142.72 " fill="none" id="U-to-UC15" style="stroke:#181818;stroke-width:1.0;"/><polygon fill="#181818" points="334.174,1142.54,325.0391,1138.8586,329.1771,1142.7156,325.32,1146.8536,334.174,1142.54" style="stroke:#181818;stroke-width:1.0;"/></g><!--MD5=[5ab5aec90558500489ee8efa20c219e0]
link U to UC16--><g id="link_U_UC16"><path d="M57.2688,1180.36 C110.905,1185.48 239.9,1197.78 326.122,1206 " fill="none" id="U-to-UC16" style="stroke:#181818;stroke-width:1.0;"/><polygon fill="#181818" points="331.223,1206.49,322.6436,1201.6533,326.2456,1206.0151,321.8838,1209.6172,331.223,1206.49" style="stroke:#181818;stroke-width:1.0;"/></g><!--MD5=[9a761ab4c19e8b44de4830b1ad0eef56]
link U to UC17--><g id="link_U_UC17"><path d="M57.0595,1188.98 C92.6193,1204.54 160.787,1233.1 221,1251 C255.483,1261.25 294.249,1269.94 327.656,1276.57 " fill="none" id="U-to-UC17" style="stroke:#181818;stroke-width:1.0;"/><polygon fill="#181818" points="332.97,1277.61,324.9133,1271.9452,328.0644,1276.6432,323.3664,1279.7942,332.97,1277.61" style="stroke:#181818;stroke-width:1.0;"/></g><!--MD5=[4964f6686cbc04f2f85b4ed3eef582ab]
link A to UC18--><g id="link_A_UC18"><path d="M182.209,890.52 C194.031,884.18 207.82,877.54 221,873 C258.026,860.25 300.776,851.63 336.243,846.03 " fill="none" id="A-to-UC18" style="stroke:#181818;stroke-width:1.0;"/><polygon fill="#181818" points="341.421,845.22,331.914,842.6476,336.4802,845.9868,333.1409,850.553,341.421,845.22" style="stroke:#181818;stroke-width:1.0;"/></g><!--MD5=[c753b8a231d1418899ea12c97c55c652]
link U to UC19--><g id="link_U_UC19"><path d="M57.0345,1205.03 C90.4845,1240.05 153.951,1300.26 221,1331 C257.251,1347.62 300.888,1356.13 337.096,1360.48 " fill="none" id="U-to-UC19" style="stroke:#181818;stroke-width:1.0;"/><polygon fill="#181818" points="342.382,1361.1,333.9019,1356.0912,337.4152,1360.5248,332.9816,1364.0381,342.382,1361.1" style="stroke:#181818;stroke-width:1.0;"/></g><!--MD5=[96b3fd791c7bffe64952f06acd00718c]
link U to UC20--><g id="link_U_UC20"><path d="M51.2592,1216.09 C66.7835,1245.46 90.6656,1286.14 118,1317 C156.8,1360.8 167.883,1374.46 221,1399 C253.69,1414.1 292.327,1423.05 326.12,1428.34 " fill="none" id="U-to-UC20" style="stroke:#181818;stroke-width:1.0;"/><polygon fill="#181818" points="331.07,1429.1,322.7764,1423.7881,326.1272,1428.3457,321.5696,1431.6965,331.07,1429.1" style="stroke:#181818;stroke-width:1.0;"/></g><!--MD5=[ae3208c0e7cb1452688eda938d358830]
link U to UC21--><g id="link_U_UC21"><path d="M42.17,1216.04 C54.6217,1259.98 79.3723,1332.99 118,1386 C153.289,1434.43 167.24,1446.53 221,1473 C249.475,1487.02 282.692,1496.28 313.266,1502.38 " fill="none" id="U-to-UC21" style="stroke:#181818;stroke-width:1.0;"/><polygon fill="#181818" points="318.544,1503.4,310.4746,1497.7533,313.6362,1502.4442,308.9453,1505.6058,318.544,1503.4" style="stroke:#181818;stroke-width:1.0;"/></g><!--MD5=[024a1dfa4530279789c6d69c1bdcea27]
link U to UC22--><g id="link_U_UC22"><path d="M37.6326,1216.06 C46.6256,1272.65 69.1322,1380.7 118,1459 C151.133,1512.09 165.113,1526.84 221,1555 C254.518,1571.89 295.064,1580.69 329.994,1585.255 " fill="none" id="U-to-UC22" style="stroke:#181818;stroke-width:1.0;"/><polygon fill="#181818" points="335.105,1585.898,326.6748,1580.8057,330.1441,1585.2738,325.676,1588.7431,335.105,1585.898" style="stroke:#181818;stroke-width:1.0;"/></g><!--MD5=[ea98eeaebade4d7f895af027aa825d30]
link U to UC23--><g id="link_U_UC23"><path d="M33.5941,1216.21 C37.2133,1285.79 52.6422,1435.59 118,1540 C170.193,1623.379 281.746,1667.003 350.864,1686.914 " fill="none" id="U-to-UC23" style="stroke:#181818;stroke-width:1.0;"/><polygon fill="#181818" points="355.765,1688.306,348.2015,1681.9978,350.9555,1686.939,346.0143,1689.693,355.765,1688.306" style="stroke:#181818;stroke-width:1.0;"/></g><!--MD5=[d068cb74b9216adc6682ebafae21690f]
link U to UC24--><g id="link_U_UC24"><path d="M33.0636,1216.2 C35.6624,1295.05 49.2525,1479.76 118,1615 C150.156,1678.259 160.846,1699.355 221,1737 C241.362,1749.743 264.956,1759.109 288.425,1765.992 " fill="none" id="U-to-UC24" style="stroke:#181818;stroke-width:1.0;"/><polygon fill="#181818" points="293.43,1767.423,285.8762,1761.1032,288.6226,1766.0486,283.6772,1768.7951,293.43,1767.423" style="stroke:#181818;stroke-width:1.0;"/></g><!--MD5=[c076952fc18c5a999228b98f01499b8e]
link U to UC25--><g id="link_U_UC25"><path d="M35.6413,1216.06 C44.9698,1323.6 74.5905,1627.75 118,1717 C148.302,1779.301 161.716,1798.153 221,1834 C242.674,1847.105 267.87,1856.48 292.664,1863.185 " fill="none" id="U-to-UC25" style="stroke:#181818;stroke-width:1.0;"/><polygon fill="#181818" points="297.617,1864.491,289.9338,1858.3291,292.7821,1863.2166,287.8947,1866.0649,297.617,1864.491" style="stroke:#181818;stroke-width:1.0;"/></g><!--MD5=[44b346cb50094330f94acb55a445f9bd]
link U to UC26--><g id="link_U_UC26"><path d="M34.5218,1216.4 C41.366,1337.22 66.1851,1707.901 118,1815 C147.453,1875.877 162.072,1893.819 221,1927 C250.482,1943.601 286.152,1953.016 318.526,1958.332 " fill="none" id="U-to-UC26" style="stroke:#181818;stroke-width:1.0;"/><polygon fill="#181818" points="323.692,1959.151,315.4292,1953.7913,318.7537,1958.3682,314.1767,1961.6926,323.692,1959.151" style="stroke:#181818;stroke-width:1.0;"/></g><!--MD5=[6f6d7cf4515940dc12ef1f67efc72098]
link U to UC27--><g id="link_U_UC27"><path d="M33.2477,1216.22 C36.4092,1348.93 51.7638,1788.362 118,1910 C147.496,1964.167 165.77,1975.546 221,2003 C254.925,2019.864 295.889,2028.852 330.995,2033.631 " fill="none" id="U-to-UC27" style="stroke:#181818;stroke-width:1.0;"/><polygon fill="#181818" points="336.131,2034.307,327.7303,2029.1661,331.1738,2033.6541,326.6858,2037.0976,336.131,2034.307" style="stroke:#181818;stroke-width:1.0;"/></g><!--MD5=[a93485a8bc4691c34bb47f290897a894]
link U to UC28--><g id="link_U_UC28"><path d="M32.393,1216.1 C32.6131,1358.27 39.1092,1856.531 118,1990 C148.201,2041.095 167.668,2048.954 221,2075 C247.696,2088.038 278.487,2097.079 307.364,2103.33 " fill="none" id="U-to-UC28" style="stroke:#181818;stroke-width:1.0;"/><polygon fill="#181818" points="312.355,2104.387,304.3788,2098.6094,307.4635,2103.3513,302.7216,2106.4359,312.355,2104.387" style="stroke:#181818;stroke-width:1.0;"/></g><!--MD5=[9db3f11963c3b56553e03aab690f5843]
link U to UC29--><g id="link_U_UC29"><path d="M32.1686,1216.03 C31.4644,1365.9 34.728,1914.692 118,2063 C148.786,2117.83 165.061,2131.277 221,2160 C252.198,2176.019 289.558,2185.123 322.795,2190.288 " fill="none" id="U-to-UC29" style="stroke:#181818;stroke-width:1.0;"/><polygon fill="#181818" points="328.092,2191.084,319.7862,2185.7912,323.1475,2190.3411,318.5976,2193.7024,328.092,2191.084" style="stroke:#181818;stroke-width:1.0;"/></g><!--MD5=[00488a4617737943f08f551cd02b2120]
link UC8 to APIV--><g id="link_UC8_APIV"><path d="M834.119,105 C861.22,105 890.604,105 915.489,105 " fill="none" id="UC8-to-APIV" style="stroke:#181818;stroke-width:1.0;"/><polygon fill="#181818" points="920.728,105,911.728,101,915.728,105,911.728,109,920.728,105" style="stroke:#181818;stroke-width:1.0;"/></g><!--MD5=[e1da0be72b0ea74f23d33e763d625798]
link UC30 to GM--><g id="link_UC30_GM"><path d="M438.848,2356.868 C494.909,2390.003 625.154,2466.984 697.07,2509.4891 " fill="none" id="UC30-to-GM" style="stroke:#181818;stroke-width:1.0;"/><polygon fill="#181818" points="701.721,2512.2381,696.0086,2504.2151,697.4167,2509.6939,691.9379,2511.102,701.721,2512.2381" style="stroke:#181818;stroke-width:1.0;"/></g><!--MD5=[9fa48c3e724f090198a4db2c05453534]
link UC31 to SDK--><g id="link_UC31_SDK"><path d="M481.385,2279.236 C511.636,2284.849 546.972,2293.605 577,2307 C622.144,2327.138 667.462,2360.185 699.942,2386.659 " fill="none" id="UC31-to-SDK" style="stroke:#181818;stroke-width:1.0;"/><polygon fill="#181818" points="703.838,2389.853,699.4135,2381.0539,699.9711,2386.6832,694.3418,2387.2409,703.838,2389.853" style="stroke:#181818;stroke-width:1.0;"/></g><!--MD5=[1ec652e0f5fd3e7d4e6a2ce7c0803e3e]
@startuml
left to right direction
actor Usuario as U
actor Anfitrión as A
actor "API verificación" as APIV
actor "Google Maps" as GM
actor "SDK externo" as SDK
U <|- - A

rectangle FindMyParty {
  package "Gestión cuenta" {
    usecase "Crear cuenta" as UC1
    usecase "Recuperar constraseña" as UC3
    usecase "Iniciar sesión" as UC4
    usecase "Acceder como invitado" as UC5
    usecase "Eliminar cuenta" as UC6
    usecase "Modificar perfil" as UC7
    usecase "Verificar identidad" as UC8
  }

  package "Interacción entre usuarios" {
    usecase "Seguir usuario" as UC9
    usecase "Valorar anfitrión" as UC10
    usecase "Comentar usuario" as UC11
  }

  package "Interacción con evento" {
    usecase "Modificar evento" as UC12
    usecase "Acceder información evento" as UC13
    usecase "Comentar evento" as UC14
    usecase "Unirse a evento" as UC15
    usecase "Abandonar evento" as UC16
    usecase "Ver lista participantes" as UC17
    usecase "Eliminar evento" as UC18
    usecase "Crear evento" as UC19
    usecase "Publicar imágenes" as UC20
    usecase "Acceder chat de evento" as UC21
    usecase "Escribir en chat" as UC22
  }

  package "Filtros" {
    usecase "Filtrar por radio" as UC23
    usecase "Filtrar por número de participantes" as UC24
    usecase "Filtrar por valoración de anfitrión" as UC25
    usecase "Filtrar por etiquetas" as UC26
    usecase "Filtrar por pago" as UC27
    usecase "Filtrar por dia de la semana" as UC28
    usecase "Buscar localización" as UC29
  }

  usecase "Mostrar mapa" as UC30
  usecase "Mostrar anuncios" as UC31
}

UC1 ..> UC8 : include

U - - -> UC1
U - - -> UC3
U - - -> UC4
U - - -> UC5
U - - -> UC6
U - - -> UC7
U - - -> UC9
U - - -> UC10
U - - -> UC11
A - - -> UC12
U - - -> UC13
U - - -> UC14
U - - -> UC15
U - - -> UC16
U - - -> UC17
A - - -> UC18
U - - -> UC19
U - - -> UC20
U - - -> UC21
U - - -> UC22
U - - -> UC23
U - - -> UC24
U - - -> UC25
U - - -> UC26
U - - -> UC27
U - - -> UC28
U - - -> UC29

APIV <-up- UC8
GM <-up- UC30
SDK <-up- UC31
@enduml

PlantUML version 1.2022.4beta2(Unknown compile time)
(GPL source distribution)
Java Runtime: Java(TM) SE Runtime Environment
JVM: Java HotSpot(TM) 64-Bit Server VM
Default Encoding: UTF-8
Language: en
Country: US
--></g></svg>